HIERARCHY
ROOT ROOT
{
	OFFSET 0.000000 56.020000 -5.659234
	CHANNELS 6 Xposition Yposition Zposition Xrotation Yrotation Zrotation 
	JOINT C_spine0001_bind_JNT
	{
		OFFSET 0.000000 1.618999 0.000000
		CHANNELS 3 Xrotation Yrotation Zrotation
		JOINT C_spine0002_bind_JNT
		{
			OFFSET 0.000000 4.942001 0.000001
			CHANNELS 3 Xrotation Yrotation Zrotation
			JOINT C_spine0003_bind_JNT
			{
				OFFSET 0.000000 4.942001 -0.000000
				CHANNELS 3 Xrotation Yrotation Zrotation
				JOINT C_neck0001_bind_JNT
				{
					OFFSET 0.000000 17.026009 -0.000000
					CHANNELS 3 Xrotation Yrotation Zrotation
					JOINT C_neck0002_bind_JNT
					{
						OFFSET 0.000000 3.249985 0.000000
						CHANNELS 3 Xrotation Yrotation Zrotation
						JOINT C_head_bind_JNT
						{
							OFFSET 0.000000 5.278008 0.000000
							CHANNELS 3 Xrotation Yrotation Zrotation
							End Site
							{
								OFFSET 0.000000 0.000000 0.000000
							}
						}
					}
				}
				JOINT L_clavicle_bind_JNT
				{
					OFFSET 4.590000 12.067001 0.834000
					CHANNELS 3 Xrotation Yrotation Zrotation
					JOINT L_armUpper0001_bind_JNT
					{
						OFFSET 7.812635 0.512001 -3.452945
						CHANNELS 3 Xrotation Yrotation Zrotation
						JOINT L_armLower0001_bind_JNT
						{
							OFFSET 15.265892 -6.552116 -0.058157
							CHANNELS 3 Xrotation Yrotation Zrotation
							JOINT L_hand0001_bind_JNT
							{
								OFFSET 14.747667 -6.369995 5.049225
								CHANNELS 3 Xrotation Yrotation Zrotation
								End Site
								{
									OFFSET 0.000000 0.000000 0.000000
								}
							}
						}
					}
				}
				JOINT R_clavicle_bind_JNT
				{
					OFFSET -4.590000 12.067001 0.834000
					CHANNELS 3 Xrotation Yrotation Zrotation
					JOINT R_armUpper0001_bind_JNT
					{
						OFFSET -7.812635 0.512001 -3.452945
						CHANNELS 3 Xrotation Yrotation Zrotation
						JOINT R_armLower0001_bind_JNT
						{
							OFFSET -15.265890 -6.552124 -0.058160
							CHANNELS 3 Xrotation Yrotation Zrotation
							JOINT R_hand0001_bind_JNT
							{
								OFFSET -14.746784 -6.369629 5.048937
								CHANNELS 3 Xrotation Yrotation Zrotation
								End Site
								{
									OFFSET 0.000000 0.000000 0.000000
								}
							}
						}
					}
				}
			}
		}
	}
	JOINT C_pelvis0001_bind_JNT
	{
		OFFSET -0.000000 0.000000 0.000000
		CHANNELS 3 Xrotation Yrotation Zrotation
		JOINT L_legUpper0001_bind_JNT
		{
			OFFSET 6.599999 -6.027000 0.539000
			CHANNELS 3 Xrotation Yrotation Zrotation
			JOINT L_legLower0001_bind_JNT
			{
				OFFSET -0.140713 -19.187443 0.040261
				CHANNELS 3 Xrotation Yrotation Zrotation
				JOINT L_foot0001_bind_JNT
				{
					OFFSET -0.132215 -18.028637 -1.138370
					CHANNELS 3 Xrotation Yrotation Zrotation
					JOINT L_foot0002_bind_JNT
					{
						OFFSET 0.007014 -4.693133 9.886524
						CHANNELS 3 Xrotation Yrotation Zrotation
						End Site
						{
							OFFSET 0.000000 0.000000 0.000000
						}
					}
				}
			}
		}
		JOINT R_legUpper0001_bind_JNT
		{
			OFFSET -6.599999 -6.027000 0.539000
			CHANNELS 3 Xrotation Yrotation Zrotation
			JOINT R_legLower0001_bind_JNT
			{
				OFFSET 0.140710 -19.187164 0.040550
				CHANNELS 3 Xrotation Yrotation Zrotation
				JOINT R_foot0001_bind_JNT
				{
					OFFSET 0.132215 -18.028633 -1.138362
					CHANNELS 3 Xrotation Yrotation Zrotation
					JOINT R_foot0002_bind_JNT
					{
						OFFSET -0.007014 -4.693128 9.886505
						CHANNELS 3 Xrotation Yrotation Zrotation
						End Site
						{
							OFFSET 0.000000 0.000000 0.000000
						}
					}
				}
			}
		}
	}
}
MOTION
Frames: 13
Frame Time: 0.033333
-3.974520 48.449535 114.089424 0.044593 -2.788802 -0.037908 0.564038 8.267323 -1.020512 -6.543216 1.933532 -1.768221 1.634683 3.147236 -4.393911 11.523637 1.420352 -1.852575 -0.174578 -0.212542 -0.578139 -16.275608 2.945874 -1.461852 18.015102 3.660973 18.774927 -22.603189 -8.560130 -79.797455 -30.900618 30.401072 -2.894881 -21.466255 -20.965828 -20.340345 15.496148 1.751191 -20.840761 -21.483398 3.656768 86.349823 -17.116070 -26.457073 15.172925 -17.664215 12.511709 19.016037 5.898222 3.779003 3.127798 -9.323108 1.651700 -8.839046 9.138982 -0.056824 -0.770350 -5.049277 -2.121691 3.650369 -0.659291 -0.696934 1.377799 -18.000019 -8.868602 -10.933467 56.634270 -0.367580 -1.377105 -1.002077 7.983770 -1.116078 -15.692132 1.591704 -0.673125 
-3.821918 48.642277 115.127792 0.030065 -2.807069 -0.049784 -0.069674 5.764498 -0.175648 -6.404846 1.188602 -1.445443 1.489142 2.171326 -3.767039 12.028079 1.771358 -1.671980 -0.254532 0.008311 -0.725169 -15.412459 3.633983 -0.892091 17.773453 3.133688 18.875433 -25.439943 -9.418809 -79.600800 -29.990902 31.472994 -2.570750 -21.290092 -20.535435 -19.916821 14.855845 2.044455 -19.669233 -19.903563 2.321199 85.364609 -19.738262 -31.249159 15.544310 -22.771246 14.598677 18.869520 5.102651 2.952490 2.171705 -7.425676 1.791440 -8.034686 8.848124 0.141664 -0.458597 -4.867538 -2.082878 3.812054 -1.328420 -0.425082 1.295845 -20.134865 -7.419575 -10.361292 55.422653 -0.310553 -0.489287 -5.302433 6.921283 -2.752290 -14.416773 1.545304 1.615212 
-3.693098 48.815044 116.182884 0.048345 -2.534852 -0.054325 -0.073867 3.135426 0.460084 -6.509586 0.252003 -0.955452 1.495338 0.988115 -3.368202 12.129281 2.386263 -1.488643 -0.163111 0.034403 -0.566073 -14.831020 4.583929 -0.536763 17.303890 2.779845 18.980862 -28.115044 -10.370893 -79.183495 -28.771641 31.846748 -1.991597 -21.288147 -19.298758 -20.255287 14.109485 2.505081 -18.893961 -18.369196 1.392363 84.961334 -22.984159 -35.746204 14.827898 -26.249273 17.597420 19.125017 4.856115 2.071121 1.060204 -5.704055 1.830162 -6.892539 8.158506 0.718052 -0.425408 -5.407663 -2.306243 3.715410 -1.508394 -0.113038 1.480830 -21.749138 -6.363824 -9.077247 51.341114 -0.031908 0.084142 -7.820402 7.107408 -2.602529 -14.312627 1.328825 1.201873 
-3.504431 48.989990 117.249374 0.043191 -2.189045 -0.040620 -0.245760 0.791221 1.126315 -6.352919 -0.849163 -0.596268 1.447283 -0.231913 -2.861597 12.234015 3.009581 -1.408813 -0.199289 0.244618 -0.633707 -14.492899 6.013651 -0.361802 16.994972 2.762714 19.090824 -30.071768 -11.204233 -78.380684 -27.161081 31.813072 -2.125075 -21.253925 -19.059523 -20.780090 13.810445 2.745351 -17.978733 -17.261368 0.574384 84.554001 -24.954674 -38.457024 12.801427 -29.915138 19.818632 20.788723 4.906945 1.457249 0.179401 -3.566502 1.267371 -6.279856 6.584720 1.318482 -0.225003 -5.043899 -2.288865 3.568422 -2.432087 0.018825 1.531412 -23.615080 -5.774593 -8.300982 45.541561 -0.004878 0.599753 -9.002298 8.360586 -1.780332 -11.400540 1.674532 0.809731 
-3.367996 49.054428 118.302383 0.043835 -2.034405 -0.034993 -0.196508 -1.192943 1.482619 -6.145783 -1.909390 -0.198803 1.445629 -1.243849 -2.270222 12.192748 3.591001 -1.147811 0.043468 0.219196 -0.723730 -14.244403 7.000308 -0.112142 16.959869 2.546990 19.587879 -31.951818 -11.833540 -78.162529 -26.259594 30.969675 -1.335690 -20.900312 -18.454647 -21.800774 13.358089 2.764573 -17.076159 -15.966792 0.102958 83.818832 -25.977877 -40.410828 11.799515 -31.391251 21.420645 21.188894 4.944651 1.218441 -0.342589 -1.621964 1.019732 -5.760263 5.249986 1.871000 -0.496305 -5.361432 -2.103945 3.782826 -2.951267 -0.066558 1.359522 -24.759073 -5.750735 -7.560458 37.709114 0.688267 0.455730 -8.630408 8.739011 0.735969 -7.055016 2.574256 0.119889 
-3.120473 49.013203 119.437325 0.045035 -2.130430 -0.049341 0.009016 -2.680912 1.995902 -6.217823 -2.724070 0.307232 1.439523 -2.262179 -1.778037 12.243435 4.036432 -1.038365 0.095977 0.523335 -0.759892 -14.086322 7.646793 0.082230 16.750555 2.751685 20.166809 -33.390713 -12.175327 -78.339653 -24.245352 29.952475 -1.129745 -20.736835 -18.056690 -22.149891 13.501571 2.674988 -16.511198 -14.545655 -0.227986 82.903008 -26.309738 -41.301964 10.900828 -32.975822 22.393229 22.300930 5.133999 1.159776 -0.691666 0.154793 0.526028 -5.899186 4.078952 2.826691 -0.518022 -5.816274 -2.393514 4.089438 -3.338428 -0.210901 1.187728 -25.403584 -5.362890 -6.945355 29.638491 1.652050 0.579064 -8.009527 9.264091 3.064512 -3.409266 2.616571 0.948054 
-2.939191 48.973988 120.561172 0.044874 -1.956571 -0.038600 0.069828 -4.323964 2.545091 -5.945743 -3.641004 0.647315 1.651996 -2.941180 -1.183986 12.142447 4.411484 -1.108123 -0.043795 0.358343 -0.725364 -14.030738 8.652709 0.288000 16.559956 3.014668 20.941317 -35.223431 -12.616310 -78.352310 -22.480246 28.882833 -0.673570 -21.258255 -17.370098 -23.657276 13.253856 2.625886 -16.009109 -13.057500 -0.506767 81.816170 -26.265690 -42.752060 10.916195 -34.040451 24.043299 23.273325 5.059797 1.040274 -1.110866 1.716488 0.618947 -5.993143 4.063424 3.000694 -0.721065 -7.046738 -2.463683 4.360701 -3.584129 0.029809 1.570642 -24.693195 -5.955495 -5.767875 20.292902 1.953699 0.559545 -6.250567 10.448237 6.330525 -2.117692 2.603203 1.294009 
-2.710184 48.785992 121.785347 0.053165 -1.940878 -0.047557 -0.005503 -5.516333 3.107192 -5.716230 -4.200982 0.961129 2.036604 -3.509640 -0.594108 11.844633 4.769409 -1.173797 -0.234806 0.483420 -0.725628 -14.275629 8.867587 0.223312 16.206051 3.094314 21.423607 -36.208206 -13.237493 -77.711494 -20.432083 27.553158 -0.918814 -21.535866 -17.051283 -24.968388 13.462208 2.452570 -15.593184 -12.106459 -0.837186 80.542992 -26.836645 -43.603699 10.367620 -34.501049 24.932001 24.092386 4.958951 1.224821 -0.974965 3.049700 0.110973 -6.455949 4.108425 3.637046 -0.733873 -7.687500 -2.414033 4.442048 -3.954672 0.092137 1.353599 -24.586424 -6.885146 -5.067495 12.911690 1.998180 1.039596 -5.528947 11.220268 9.406362 -2.018994 2.467464 1.729025 
-2.382737 48.507141 123.140930 0.045753 -1.953330 -0.032149 -0.203780 -6.429952 3.600435 -5.422463 -4.736303 1.173246 2.156027 -3.902657 -0.160536 11.643324 5.068910 -1.307766 -0.198198 0.415554 -0.630118 -14.250104 9.841002 0.006758 16.140358 3.678516 21.666277 -37.357796 -14.403403 -77.508865 -18.732264 26.253618 -1.198415 -22.083063 -17.642303 -26.493488 14.029496 2.167228 -15.156267 -11.057680 -0.684245 78.990669 -27.088354 -44.769783 10.617779 -35.202808 25.724203 25.287493 4.857195 1.401579 -0.919328 4.413355 -0.425532 -7.035552 4.195128 4.319505 -0.722489 -8.027895 -2.376330 4.455220 -4.953738 0.258488 1.563127 -24.780033 -8.316010 -4.230931 7.613675 1.782540 0.768851 -4.778941 12.031543 11.957207 -2.486333 1.859326 2.453000 
-2.089643 48.253738 124.453812 0.060487 -1.935444 -0.042146 0.077360 -7.123953 4.205281 -5.547749 -5.038292 1.350619 2.245598 -4.204921 0.177828 11.390451 5.126914 -1.371412 -0.129992 0.559160 -0.705116 -14.592495 10.005439 -0.107705 16.261705 3.426990 21.720900 -38.247303 -14.705596 -76.792542 -16.781450 25.936785 -2.406604 -22.280525 -19.260195 -27.491653 14.151698 1.957785 -14.545404 -9.596044 -0.965458 77.607002 -27.950752 -44.765450 9.533212 -35.198177 25.925653 27.014297 5.007150 1.437269 -0.946575 5.729597 -0.919354 -7.532856 4.510234 5.055022 -0.662003 -8.697066 -2.019449 4.316617 -5.976140 0.137019 1.893434 -25.683794 -9.615725 -3.286561 4.963652 2.253545 0.476721 -4.585291 12.156385 14.020610 -2.060698 1.622573 2.623320 
-1.810172 48.201530 125.614769 0.040850 -1.906260 -0.035955 0.313799 -7.279049 4.491744 -5.690917 -5.472567 1.609399 2.442485 -4.592654 0.685850 11.339214 5.138661 -1.577197 -0.163981 0.498544 -0.596484 -14.694333 10.665065 -0.308513 16.204973 2.952645 21.278450 -38.523735 -14.974572 -76.177002 -15.455044 25.246235 -3.270608 -22.038691 -20.282343 -28.096151 14.029344 2.000427 -13.695607 -8.759359 -1.122832 75.687592 -28.025543 -45.704285 9.770254 -36.173721 26.652058 28.133234 4.981991 1.861276 -1.395843 6.456767 -0.945614 -7.516613 5.458005 5.262651 -0.748382 -9.018567 -2.177083 4.645636 -7.141097 0.406182 1.867965 -26.458145 -9.640992 -1.812305 4.724609 2.542470 -0.235680 -4.271605 12.181217 14.562579 -1.594075 1.171330 3.086306 
-1.537905 48.125469 126.802834 0.053566 -1.764366 -0.044655 0.535816 -7.289585 4.874314 -5.714205 -5.870936 1.788844 2.438719 -4.920700 1.075144 11.034359 5.085922 -1.474257 -0.196054 0.603024 -0.758814 -15.132743 10.522537 -0.432990 16.013720 2.301565 20.954802 -38.860138 -15.005363 -76.374687 -13.777213 25.255674 -4.024934 -21.475016 -21.729782 -27.747992 13.574055 1.975782 -12.747646 -7.588009 -1.627659 74.045479 -29.157812 -45.643742 8.677579 -36.589737 26.858204 29.563574 5.173271 2.353637 -1.876920 7.457500 -0.905336 -7.315575 6.273157 5.159021 -0.722702 -9.561937 -1.849939 4.638548 -8.599766 0.234524 2.126425 -27.323959 -8.807774 -0.303983 5.178301 2.662629 -0.804987 -2.579679 12.215848 13.334077 -1.119589 1.070454 3.063857 
-1.256848 48.097435 128.154694 0.041755 -1.665739 -0.049500 0.498374 -7.108362 5.020949 -5.783732 -6.230042 1.855254 2.548367 -5.350130 1.525473 10.887300 5.283592 -1.654716 -0.100216 0.541581 -0.682993 -15.249499 10.857499 -0.398883 16.260044 1.587649 20.821203 -38.934326 -14.754314 -76.383743 -12.542840 25.186539 -4.614083 -20.870083 -22.565866 -28.008007 13.419608 2.311267 -12.111211 -7.139688 -2.397667 72.803673 -29.851519 -46.497917 8.256197 -37.372986 27.296587 30.776333 5.292826 2.993435 -2.541151 7.764546 -0.636362 -7.041734 7.246361 4.979065 -0.594121 -9.175646 -2.061641 4.272997 -10.379526 0.326731 2.701455 -27.337433 -7.511077 0.910681 6.044195 2.382171 -1.201921 -0.296678 12.558948 11.706766 -0.804162 1.274373 2.380936 
